<?xml version="1.0" encoding="UTF-8" standalone="no"?>
<!DOCTYPE svg PUBLIC "-//W3C//DTD SVG 1.1//EN"
 "http://www.w3.org/Graphics/SVG/1.1/DTD/svg11.dtd">
<!-- Generated by graphviz version 2.44.0 ()
 -->
<!-- Title: Roster Pages: 1 -->
<svg width="1252pt" height="531pt"
 viewBox="0.00 0.00 1251.60 531.49" xmlns="http://www.w3.org/2000/svg" xmlns:xlink="http://www.w3.org/1999/xlink">
<g id="graph0" class="graph" transform="scale(1 1) rotate(0) translate(28.8 502.69)">
<title>Roster</title>
<polygon fill="white" stroke="transparent" points="-28.8,28.8 -28.8,-502.69 1222.8,-502.69 1222.8,28.8 -28.8,28.8"/>
<text text-anchor="middle" x="597" y="-459.49" font-family="Arial Bold" font-size="13.00">ER Diagram</text>
<!-- m_ActiveRecord::InternalMetadata -->
<g id="node1" class="node">
<title>m_ActiveRecord::InternalMetadata</title>
<path fill="none" stroke="black" d="M12,-0.5C12,-0.5 224,-0.5 224,-0.5 230,-0.5 236,-6.5 236,-12.5 236,-12.5 236,-31.5 236,-31.5 236,-37.5 230,-43.5 224,-43.5 224,-43.5 12,-43.5 12,-43.5 6,-43.5 0,-37.5 0,-31.5 0,-31.5 0,-12.5 0,-12.5 0,-6.5 6,-0.5 12,-0.5"/>
<text text-anchor="start" x="5" y="-30.7" font-family="Arial Bold" font-size="11.00">ActiveRecord::InternalMetadata</text>
<polyline fill="none" stroke="black" points="0,-23.5 236,-23.5 "/>
<text text-anchor="start" x="53" y="-10" font-family="Arial" font-size="10.00">value </text>
<text text-anchor="start" x="99" y="-10" font-family="Arial Italic" font-size="10.00" fill="#999999">string</text>
</g>
<!-- m_ActiveRecord::SchemaMigration -->
<g id="node2" class="node">
<title>m_ActiveRecord::SchemaMigration</title>
<path fill="none" stroke="black" d="M16,-74C16,-74 220,-74 220,-74 226,-74 232,-80 232,-86 232,-86 232,-98 232,-98 232,-104 226,-110 220,-110 220,-110 16,-110 16,-110 10,-110 4,-104 4,-98 4,-98 4,-86 4,-86 4,-80 10,-74 16,-74"/>
<text text-anchor="start" x="9" y="-89.2" font-family="Arial Bold" font-size="11.00">ActiveRecord::SchemaMigration</text>
</g>
<!-- m_BookletMatch -->
<g id="node3" class="node">
<title>m_BookletMatch</title>
<path fill="none" stroke="black" d="M980,-95C980,-95 1182,-95 1182,-95 1188,-95 1194,-101 1194,-107 1194,-107 1194,-217 1194,-217 1194,-223 1188,-229 1182,-229 1182,-229 980,-229 980,-229 974,-229 968,-223 968,-217 968,-217 968,-107 968,-107 968,-101 974,-95 980,-95"/>
<text text-anchor="start" x="1033.5" y="-216.2" font-family="Arial Bold" font-size="11.00">BookletMatch</text>
<polyline fill="none" stroke="black" points="968,-209 1194,-209 "/>
<text text-anchor="start" x="975" y="-196" font-family="Arial" font-size="10.00">booklet </text>
<text text-anchor="start" x="1036" y="-196" font-family="Arial Italic" font-size="10.00" fill="#999999">string</text>
<text text-anchor="start" x="975" y="-183" font-family="Arial" font-size="10.00">comments </text>
<text text-anchor="start" x="1043" y="-183" font-family="Arial Italic" font-size="10.00" fill="#999999">string</text>
<text text-anchor="start" x="975" y="-170" font-family="Arial" font-size="10.00">exam_id </text>
<text text-anchor="start" x="1036" y="-170" font-family="Arial Italic" font-size="10.00" fill="#999999">integer (8) ∗ FK</text>
<text text-anchor="start" x="975" y="-157" font-family="Arial" font-size="10.00">exam_token_id </text>
<text text-anchor="start" x="1081" y="-157" font-family="Arial Italic" font-size="10.00" fill="#999999">integer (8) FK</text>
<text text-anchor="start" x="975" y="-144" font-family="Arial" font-size="10.00">room_id </text>
<text text-anchor="start" x="1036" y="-144" font-family="Arial Italic" font-size="10.00" fill="#999999">integer (8) ∗ FK</text>
<text text-anchor="start" x="975" y="-131" font-family="Arial" font-size="10.00">student_id </text>
<text text-anchor="start" x="1058" y="-131" font-family="Arial Italic" font-size="10.00" fill="#999999">integer (8) ∗ FK</text>
<text text-anchor="start" x="975" y="-118" font-family="Arial" font-size="10.00">time_matched </text>
<text text-anchor="start" x="1073" y="-118" font-family="Arial Italic" font-size="10.00" fill="#999999">datetime</text>
<text text-anchor="start" x="975" y="-105" font-family="Arial" font-size="10.00">user_id </text>
<text text-anchor="start" x="1036" y="-105" font-family="Arial Italic" font-size="10.00" fill="#999999">integer (8) ∗ FK</text>
</g>
<!-- m_Exam -->
<g id="node4" class="node">
<title>m_Exam</title>
<path fill="none" stroke="black" d="M284,-134C284,-134 456,-134 456,-134 462,-134 468,-140 468,-146 468,-146 468,-204 468,-204 468,-210 462,-216 456,-216 456,-216 284,-216 284,-216 278,-216 272,-210 272,-204 272,-204 272,-146 272,-146 272,-140 278,-134 284,-134"/>
<text text-anchor="start" x="352.5" y="-203.2" font-family="Arial Bold" font-size="11.00">Exam</text>
<polyline fill="none" stroke="black" points="272,-196 468,-196 "/>
<text text-anchor="start" x="279" y="-183" font-family="Arial" font-size="10.00">end_time </text>
<text text-anchor="start" x="347" y="-183" font-family="Arial Italic" font-size="10.00" fill="#999999">datetime</text>
<text text-anchor="start" x="279" y="-170" font-family="Arial" font-size="10.00">name </text>
<text text-anchor="start" x="317" y="-170" font-family="Arial Italic" font-size="10.00" fill="#999999">string ∗</text>
<text text-anchor="start" x="279" y="-157" font-family="Arial" font-size="10.00">url_token </text>
<text text-anchor="start" x="355" y="-157" font-family="Arial Italic" font-size="10.00" fill="#999999">string</text>
<text text-anchor="start" x="279" y="-144" font-family="Arial" font-size="10.00">user_id </text>
<text text-anchor="start" x="340" y="-144" font-family="Arial Italic" font-size="10.00" fill="#999999">integer (8) ∗ FK</text>
</g>
<!-- m_Exam&#45;&gt;m_BookletMatch -->
<g id="edge4" class="edge">
<title>m_Exam&#45;&gt;m_BookletMatch</title>
<path fill="none" stroke="black" d="M468.1,-201.58C602.93,-238.45 830.73,-300.57 833,-300"/>
</g>
<!-- m_ExamToken -->
<g id="node5" class="node">
<title>m_ExamToken</title>
<path fill="none" stroke="black" d="M748,-108C748,-108 920,-108 920,-108 926,-108 932,-114 932,-120 932,-120 932,-204 932,-204 932,-210 926,-216 920,-216 920,-216 748,-216 748,-216 742,-216 736,-210 736,-204 736,-204 736,-120 736,-120 736,-114 742,-108 748,-108"/>
<text text-anchor="start" x="798" y="-203.2" font-family="Arial Bold" font-size="11.00">ExamToken</text>
<polyline fill="none" stroke="black" points="736,-196 932,-196 "/>
<text text-anchor="start" x="743" y="-183" font-family="Arial" font-size="10.00">cookie </text>
<text text-anchor="start" x="796" y="-183" font-family="Arial Italic" font-size="10.00" fill="#999999">string</text>
<text text-anchor="start" x="743" y="-170" font-family="Arial" font-size="10.00">exam_id </text>
<text text-anchor="start" x="804" y="-170" font-family="Arial Italic" font-size="10.00" fill="#999999">integer (8) ∗ FK</text>
<text text-anchor="start" x="743" y="-157" font-family="Arial" font-size="10.00">expiry </text>
<text text-anchor="start" x="796" y="-157" font-family="Arial Italic" font-size="10.00" fill="#999999">datetime</text>
<text text-anchor="start" x="743" y="-144" font-family="Arial" font-size="10.00">room_id </text>
<text text-anchor="start" x="804" y="-144" font-family="Arial Italic" font-size="10.00" fill="#999999">integer (8) FK</text>
<text text-anchor="start" x="743" y="-131" font-family="Arial" font-size="10.00">token </text>
<text text-anchor="start" x="789" y="-131" font-family="Arial Italic" font-size="10.00" fill="#999999">string</text>
<text text-anchor="start" x="743" y="-118" font-family="Arial" font-size="10.00">user_id </text>
<text text-anchor="start" x="804" y="-118" font-family="Arial Italic" font-size="10.00" fill="#999999">integer (8) FK</text>
</g>
<!-- m_Exam&#45;&gt;m_ExamToken -->
<g id="edge10" class="edge">
<title>m_Exam&#45;&gt;m_ExamToken</title>
<path fill="none" stroke="black" d="M436.59,-133.97C481.38,-110.15 542.92,-85.46 601,-89"/>
</g>
<!-- m_Room -->
<g id="node6" class="node">
<title>m_Room</title>
<path fill="none" stroke="black" d="M516,-134C516,-134 688,-134 688,-134 694,-134 700,-140 700,-146 700,-146 700,-178 700,-178 700,-184 694,-190 688,-190 688,-190 516,-190 516,-190 510,-190 504,-184 504,-178 504,-178 504,-146 504,-146 504,-140 510,-134 516,-134"/>
<text text-anchor="start" x="584.5" y="-177.2" font-family="Arial Bold" font-size="11.00">Room</text>
<polyline fill="none" stroke="black" points="504,-170 700,-170 "/>
<text text-anchor="start" x="511" y="-157" font-family="Arial" font-size="10.00">exam_id </text>
<text text-anchor="start" x="572" y="-157" font-family="Arial Italic" font-size="10.00" fill="#999999">integer (8) ∗ FK</text>
<text text-anchor="start" x="511" y="-144" font-family="Arial" font-size="10.00">name </text>
<text text-anchor="start" x="549" y="-144" font-family="Arial Italic" font-size="10.00" fill="#999999">string</text>
</g>
<!-- m_Exam&#45;&gt;m_Room -->
<g id="edge1" class="edge">
<title>m_Exam&#45;&gt;m_Room</title>
<path fill="none" stroke="black" d="M468.21,-169.51C476.94,-169.01 485.82,-168.51 494.63,-168.01"/>
<polygon fill="black" stroke="black" points="494.96,-171.15 503.77,-167.5 494.61,-164.86 494.96,-171.15"/>
</g>
<!-- m_Student -->
<g id="node7" class="node">
<title>m_Student</title>
<path fill="none" stroke="black" d="M516,-279.5C516,-279.5 688,-279.5 688,-279.5 694,-279.5 700,-285.5 700,-291.5 700,-291.5 700,-388.5 700,-388.5 700,-394.5 694,-400.5 688,-400.5 688,-400.5 516,-400.5 516,-400.5 510,-400.5 504,-394.5 504,-388.5 504,-388.5 504,-291.5 504,-291.5 504,-285.5 510,-279.5 516,-279.5"/>
<text text-anchor="start" x="573.5" y="-387.7" font-family="Arial Bold" font-size="11.00">Student</text>
<polyline fill="none" stroke="black" points="504,-380.5 700,-380.5 "/>
<text text-anchor="start" x="511" y="-367" font-family="Arial" font-size="10.00">email </text>
<text text-anchor="start" x="557" y="-367" font-family="Arial Italic" font-size="10.00" fill="#999999">string</text>
<text text-anchor="start" x="511" y="-354" font-family="Arial" font-size="10.00">exam_id </text>
<text text-anchor="start" x="572" y="-354" font-family="Arial Italic" font-size="10.00" fill="#999999">integer (8) ∗ FK</text>
<text text-anchor="start" x="511" y="-341" font-family="Arial" font-size="10.00">first_name </text>
<text text-anchor="start" x="594" y="-341" font-family="Arial Italic" font-size="10.00" fill="#999999">string</text>
<text text-anchor="start" x="511" y="-328" font-family="Arial" font-size="10.00">last_name </text>
<text text-anchor="start" x="587" y="-328" font-family="Arial Italic" font-size="10.00" fill="#999999">string</text>
<text text-anchor="start" x="511" y="-315" font-family="Arial" font-size="10.00">matching_data </text>
<text text-anchor="start" x="617" y="-315" font-family="Arial Italic" font-size="10.00" fill="#999999">string</text>
<text text-anchor="start" x="511" y="-302" font-family="Arial" font-size="10.00">student_number </text>
<text text-anchor="start" x="624" y="-302" font-family="Arial Italic" font-size="10.00" fill="#999999">string</text>
<text text-anchor="start" x="511" y="-289" font-family="Arial" font-size="10.00">utorid </text>
<text text-anchor="start" x="564" y="-289" font-family="Arial Italic" font-size="10.00" fill="#999999">string ∗ U</text>
</g>
<!-- m_Exam&#45;&gt;m_Student -->
<g id="edge8" class="edge">
<title>m_Exam&#45;&gt;m_Student</title>
<path fill="none" stroke="black" d="M428.45,-216.21C452.77,-233.66 481.72,-254.43 508.9,-273.93"/>
<polygon fill="black" stroke="black" points="507.36,-276.7 516.51,-279.39 511.03,-271.58 507.36,-276.7"/>
</g>
<!-- m_ExamToken&#45;&gt;m_BookletMatch -->
<g id="edge7" class="edge">
<title>m_ExamToken&#45;&gt;m_BookletMatch</title>
<path fill="none" stroke="black" d="M932.18,-162C940.91,-162 949.81,-162 958.71,-162"/>
<polygon fill="black" stroke="black" points="958.97,-165.15 967.97,-162 958.97,-158.85 958.97,-165.15"/>
</g>
<!-- m_Room&#45;&gt;m_BookletMatch -->
<g id="edge6" class="edge">
<title>m_Room&#45;&gt;m_BookletMatch</title>
<path fill="none" stroke="black" d="M658.64,-190.1C672.31,-197.31 686.8,-205.24 700,-213 760.88,-248.81 764.48,-317.14 833,-300"/>
<path fill="none" stroke="black" d="M835,-300C886.27,-287.18 938,-260.52 980.62,-234.02"/>
<polygon fill="black" stroke="black" points="982.53,-236.54 988.47,-229.08 979.17,-231.21 982.53,-236.54"/>
</g>
<!-- m_Room&#45;&gt;m_ExamToken -->
<g id="edge2" class="edge">
<title>m_Room&#45;&gt;m_ExamToken</title>
<path fill="none" stroke="black" d="M700.21,-162C708.94,-162 717.82,-162 726.63,-162"/>
<polygon fill="black" stroke="black" points="726.77,-165.15 735.77,-162 726.77,-158.85 726.77,-165.15"/>
</g>
<!-- m_Student&#45;&gt;m_BookletMatch -->
<g id="edge3" class="edge">
<title>m_Student&#45;&gt;m_BookletMatch</title>
<path fill="none" stroke="black" d="M700.18,-326.32C741.42,-319.68 789.85,-310.79 833,-300"/>
</g>
<!-- m_User -->
<g id="node8" class="node">
<title>m_User</title>
<path fill="none" stroke="black" d="M54.5,-140.5C54.5,-140.5 181.5,-140.5 181.5,-140.5 187.5,-140.5 193.5,-146.5 193.5,-152.5 193.5,-152.5 193.5,-197.5 193.5,-197.5 193.5,-203.5 187.5,-209.5 181.5,-209.5 181.5,-209.5 54.5,-209.5 54.5,-209.5 48.5,-209.5 42.5,-203.5 42.5,-197.5 42.5,-197.5 42.5,-152.5 42.5,-152.5 42.5,-146.5 48.5,-140.5 54.5,-140.5"/>
<text text-anchor="start" x="100.5" y="-196.7" font-family="Arial Bold" font-size="11.00">User</text>
<polyline fill="none" stroke="black" points="42.5,-189.5 193.5,-189.5 "/>
<text text-anchor="start" x="50" y="-176" font-family="Arial" font-size="10.00">last_seen </text>
<text text-anchor="start" x="126" y="-176" font-family="Arial Italic" font-size="10.00" fill="#999999">datetime</text>
<text text-anchor="start" x="50" y="-163" font-family="Arial" font-size="10.00">name </text>
<text text-anchor="start" x="88" y="-163" font-family="Arial Italic" font-size="10.00" fill="#999999">string</text>
<text text-anchor="start" x="50" y="-150" font-family="Arial" font-size="10.00">utorid </text>
<text text-anchor="start" x="103" y="-150" font-family="Arial Italic" font-size="10.00" fill="#999999">string ∗ U</text>
</g>
<!-- m_User&#45;&gt;m_BookletMatch -->
<g id="edge5" class="edge">
<title>m_User&#45;&gt;m_BookletMatch</title>
<path fill="none" stroke="black" d="M157.47,-209.67C222.92,-266.05 362.65,-375.41 504,-416 587.73,-440.04 618.43,-446.57 700,-416 773.45,-388.47 756.94,-319.15 833,-300"/>
</g>
<!-- m_User&#45;&gt;m_Exam -->
<g id="edge9" class="edge">
<title>m_User&#45;&gt;m_Exam</title>
<path fill="none" stroke="black" d="M193.67,-175C215.26,-175 239.26,-175 262.4,-175"/>
<polygon fill="black" stroke="black" points="262.56,-178.15 271.56,-175 262.56,-171.85 262.56,-178.15"/>
</g>
<!-- m_User&#45;&gt;m_ExamToken -->
<g id="edge11" class="edge">
<title>m_User&#45;&gt;m_ExamToken</title>
<path fill="none" stroke="black" d="M603,-89C644.79,-91.54 689.01,-103.23 727.38,-116.53"/>
<polygon fill="black" stroke="black" points="726.45,-119.54 735.99,-119.57 728.55,-113.6 726.45,-119.54"/>
<path fill="none" stroke="black" d="M193.71,-143.25C218.25,-134.02 245.92,-124.86 272,-119 415.26,-86.83 454.44,-80.08 601,-89"/>
</g>
</g>
</svg>
