<?xml version="1.0" encoding="UTF-8" standalone="no"?>
<!DOCTYPE svg PUBLIC "-//W3C//DTD SVG 1.1//EN"
 "http://www.w3.org/Graphics/SVG/1.1/DTD/svg11.dtd">
<!-- Generated by graphviz version 2.44.0 ()
 -->
<!-- Title: Roster Pages: 1 -->
<svg width="959pt" height="528pt"
 viewBox="0.00 0.00 958.60 528.39" xmlns="http://www.w3.org/2000/svg" xmlns:xlink="http://www.w3.org/1999/xlink">
<g id="graph0" class="graph" transform="scale(1 1) rotate(0) translate(28.8 499.59)">
<title>Roster</title>
<polygon fill="white" stroke="transparent" points="-28.8,28.8 -28.8,-499.59 929.8,-499.59 929.8,28.8 -28.8,28.8"/>
<text text-anchor="middle" x="450.5" y="-456.39" font-family="Arial Bold" font-size="13.00">ER Diagram</text>
<!-- m_ActiveRecord::InternalMetadata -->
<g id="node1" class="node">
<title>m_ActiveRecord::InternalMetadata</title>
<path fill="none" stroke="black" d="M14.5,-0.5C14.5,-0.5 166.5,-0.5 166.5,-0.5 172.5,-0.5 178.5,-6.5 178.5,-12.5 178.5,-12.5 178.5,-31.5 178.5,-31.5 178.5,-37.5 172.5,-43.5 166.5,-43.5 166.5,-43.5 14.5,-43.5 14.5,-43.5 8.5,-43.5 2.5,-37.5 2.5,-31.5 2.5,-31.5 2.5,-12.5 2.5,-12.5 2.5,-6.5 8.5,-0.5 14.5,-0.5"/>
<text text-anchor="start" x="7.5" y="-30.7" font-family="Arial Bold" font-size="11.00">ActiveRecord::InternalMetadata</text>
<polyline fill="none" stroke="black" points="2.5,-23.5 178.5,-23.5 "/>
<text text-anchor="start" x="25.5" y="-10" font-family="Arial" font-size="10.00">value </text>
<text text-anchor="start" x="52.5" y="-10" font-family="Arial Italic" font-size="10.00" fill="#999999">string</text>
</g>
<!-- m_ActiveRecord::SchemaMigration -->
<g id="node2" class="node">
<title>m_ActiveRecord::SchemaMigration</title>
<path fill="none" stroke="black" d="M12,-74C12,-74 169,-74 169,-74 175,-74 181,-80 181,-86 181,-86 181,-98 181,-98 181,-104 175,-110 169,-110 169,-110 12,-110 12,-110 6,-110 0,-104 0,-98 0,-98 0,-86 0,-86 0,-80 6,-74 12,-74"/>
<text text-anchor="start" x="5.5" y="-89.2" font-family="Arial Bold" font-size="11.00">ActiveRecord::SchemaMigration</text>
</g>
<!-- m_BookletMatch -->
<g id="node3" class="node">
<title>m_BookletMatch</title>
<path fill="none" stroke="black" d="M769,-95C769,-95 889,-95 889,-95 895,-95 901,-101 901,-107 901,-107 901,-217 901,-217 901,-223 895,-229 889,-229 889,-229 769,-229 769,-229 763,-229 757,-223 757,-217 757,-217 757,-107 757,-107 757,-101 763,-95 769,-95"/>
<text text-anchor="start" x="790.5" y="-216.2" font-family="Arial Bold" font-size="11.00">BookletMatch</text>
<polyline fill="none" stroke="black" points="757,-209 901,-209 "/>
<text text-anchor="start" x="764" y="-196" font-family="Arial" font-size="10.00">booklet </text>
<text text-anchor="start" x="799" y="-196" font-family="Arial Italic" font-size="10.00" fill="#999999">string U</text>
<text text-anchor="start" x="764" y="-183" font-family="Arial" font-size="10.00">comments </text>
<text text-anchor="start" x="813" y="-183" font-family="Arial Italic" font-size="10.00" fill="#999999">string</text>
<text text-anchor="start" x="764" y="-170" font-family="Arial" font-size="10.00">exam_id </text>
<text text-anchor="start" x="804" y="-170" font-family="Arial Italic" font-size="10.00" fill="#999999">integer (8) ∗ FK</text>
<text text-anchor="start" x="764" y="-157" font-family="Arial" font-size="10.00">exam_token_id </text>
<text text-anchor="start" x="834" y="-157" font-family="Arial Italic" font-size="10.00" fill="#999999">integer (8) FK</text>
<text text-anchor="start" x="764" y="-144" font-family="Arial" font-size="10.00">room_id </text>
<text text-anchor="start" x="802" y="-144" font-family="Arial Italic" font-size="10.00" fill="#999999">integer (8) ∗ FK</text>
<text text-anchor="start" x="764" y="-131" font-family="Arial" font-size="10.00">student_id </text>
<text text-anchor="start" x="813" y="-131" font-family="Arial Italic" font-size="10.00" fill="#999999">integer (8) ∗ FK</text>
<text text-anchor="start" x="764" y="-118" font-family="Arial" font-size="10.00">time_matched </text>
<text text-anchor="start" x="829" y="-118" font-family="Arial Italic" font-size="10.00" fill="#999999">datetime</text>
<text text-anchor="start" x="764" y="-105" font-family="Arial" font-size="10.00">user_id </text>
<text text-anchor="start" x="799" y="-105" font-family="Arial Italic" font-size="10.00" fill="#999999">integer (8) ∗ FK</text>
</g>
<!-- m_Exam -->
<g id="node4" class="node">
<title>m_Exam</title>
<path fill="none" stroke="black" d="M229,-134C229,-134 349,-134 349,-134 355,-134 361,-140 361,-146 361,-146 361,-204 361,-204 361,-210 355,-216 349,-216 349,-216 229,-216 229,-216 223,-216 217,-210 217,-204 217,-204 217,-146 217,-146 217,-140 223,-134 229,-134"/>
<text text-anchor="start" x="272" y="-203.2" font-family="Arial Bold" font-size="11.00">Exam</text>
<polyline fill="none" stroke="black" points="217,-196 361,-196 "/>
<text text-anchor="start" x="224" y="-183" font-family="Arial" font-size="10.00">end_time </text>
<text text-anchor="start" x="267" y="-183" font-family="Arial Italic" font-size="10.00" fill="#999999">datetime</text>
<text text-anchor="start" x="224" y="-170" font-family="Arial" font-size="10.00">name </text>
<text text-anchor="start" x="252" y="-170" font-family="Arial Italic" font-size="10.00" fill="#999999">string ∗</text>
<text text-anchor="start" x="224" y="-157" font-family="Arial" font-size="10.00">url_token </text>
<text text-anchor="start" x="267" y="-157" font-family="Arial Italic" font-size="10.00" fill="#999999">string</text>
<text text-anchor="start" x="224" y="-144" font-family="Arial" font-size="10.00">user_id </text>
<text text-anchor="start" x="259" y="-144" font-family="Arial Italic" font-size="10.00" fill="#999999">integer (8) ∗ FK</text>
</g>
<!-- m_Exam&#45;&gt;m_BookletMatch -->
<g id="edge4" class="edge">
<title>m_Exam&#45;&gt;m_BookletMatch</title>
<path fill="none" stroke="black" d="M361.13,-200.43C464.5,-237.32 644.43,-301.16 648,-300"/>
</g>
<!-- m_ExamToken -->
<g id="node5" class="node">
<title>m_ExamToken</title>
<path fill="none" stroke="black" d="M589,-108C589,-108 709,-108 709,-108 715,-108 721,-114 721,-120 721,-120 721,-204 721,-204 721,-210 715,-216 709,-216 709,-216 589,-216 589,-216 583,-216 577,-210 577,-204 577,-204 577,-120 577,-120 577,-114 583,-108 589,-108"/>
<text text-anchor="start" x="616.5" y="-203.2" font-family="Arial Bold" font-size="11.00">ExamToken</text>
<polyline fill="none" stroke="black" points="577,-196 721,-196 "/>
<text text-anchor="start" x="584" y="-183" font-family="Arial" font-size="10.00">cookie </text>
<text text-anchor="start" x="616" y="-183" font-family="Arial Italic" font-size="10.00" fill="#999999">string</text>
<text text-anchor="start" x="584" y="-170" font-family="Arial" font-size="10.00">exam_id </text>
<text text-anchor="start" x="624" y="-170" font-family="Arial Italic" font-size="10.00" fill="#999999">integer (8) ∗ FK</text>
<text text-anchor="start" x="584" y="-157" font-family="Arial" font-size="10.00">expiry </text>
<text text-anchor="start" x="614" y="-157" font-family="Arial Italic" font-size="10.00" fill="#999999">datetime</text>
<text text-anchor="start" x="584" y="-144" font-family="Arial" font-size="10.00">room_id </text>
<text text-anchor="start" x="622" y="-144" font-family="Arial Italic" font-size="10.00" fill="#999999">integer (8) FK</text>
<text text-anchor="start" x="584" y="-131" font-family="Arial" font-size="10.00">token </text>
<text text-anchor="start" x="612" y="-131" font-family="Arial Italic" font-size="10.00" fill="#999999">string</text>
<text text-anchor="start" x="584" y="-118" font-family="Arial" font-size="10.00">user_id </text>
<text text-anchor="start" x="619" y="-118" font-family="Arial Italic" font-size="10.00" fill="#999999">integer (8) FK</text>
</g>
<!-- m_Exam&#45;&gt;m_ExamToken -->
<g id="edge10" class="edge">
<title>m_Exam&#45;&gt;m_ExamToken</title>
<path fill="none" stroke="black" d="M339.61,-133.97C373.78,-110.16 421.29,-85.47 468,-89"/>
</g>
<!-- m_Room -->
<g id="node6" class="node">
<title>m_Room</title>
<path fill="none" stroke="black" d="M409,-134C409,-134 529,-134 529,-134 535,-134 541,-140 541,-146 541,-146 541,-178 541,-178 541,-184 535,-190 529,-190 529,-190 409,-190 409,-190 403,-190 397,-184 397,-178 397,-178 397,-146 397,-146 397,-140 403,-134 409,-134"/>
<text text-anchor="start" x="451" y="-177.2" font-family="Arial Bold" font-size="11.00">Room</text>
<polyline fill="none" stroke="black" points="397,-170 541,-170 "/>
<text text-anchor="start" x="404" y="-157" font-family="Arial" font-size="10.00">exam_id </text>
<text text-anchor="start" x="444" y="-157" font-family="Arial Italic" font-size="10.00" fill="#999999">integer (8) ∗ FK</text>
<text text-anchor="start" x="404" y="-144" font-family="Arial" font-size="10.00">name </text>
<text text-anchor="start" x="432" y="-144" font-family="Arial Italic" font-size="10.00" fill="#999999">string</text>
</g>
<!-- m_Exam&#45;&gt;m_Room -->
<g id="edge1" class="edge">
<title>m_Exam&#45;&gt;m_Room</title>
<path fill="none" stroke="black" d="M361.12,-169.81C369.89,-169.17 378.9,-168.51 387.79,-167.86"/>
<polygon fill="black" stroke="black" points="388.25,-170.98 397,-167.19 387.79,-164.7 388.25,-170.98"/>
</g>
<!-- m_Student -->
<g id="node7" class="node">
<title>m_Student</title>
<path fill="none" stroke="black" d="M409,-279.5C409,-279.5 529,-279.5 529,-279.5 535,-279.5 541,-285.5 541,-291.5 541,-291.5 541,-388.5 541,-388.5 541,-394.5 535,-400.5 529,-400.5 529,-400.5 409,-400.5 409,-400.5 403,-400.5 397,-394.5 397,-388.5 397,-388.5 397,-291.5 397,-291.5 397,-285.5 403,-279.5 409,-279.5"/>
<text text-anchor="start" x="446" y="-387.7" font-family="Arial Bold" font-size="11.00">Student</text>
<polyline fill="none" stroke="black" points="397,-380.5 541,-380.5 "/>
<text text-anchor="start" x="404" y="-367" font-family="Arial" font-size="10.00">email </text>
<text text-anchor="start" x="431" y="-367" font-family="Arial Italic" font-size="10.00" fill="#999999">string</text>
<text text-anchor="start" x="404" y="-354" font-family="Arial" font-size="10.00">exam_id </text>
<text text-anchor="start" x="444" y="-354" font-family="Arial Italic" font-size="10.00" fill="#999999">integer (8) ∗ FK</text>
<text text-anchor="start" x="404" y="-341" font-family="Arial" font-size="10.00">first_name </text>
<text text-anchor="start" x="453" y="-341" font-family="Arial Italic" font-size="10.00" fill="#999999">string</text>
<text text-anchor="start" x="404" y="-328" font-family="Arial" font-size="10.00">last_name </text>
<text text-anchor="start" x="453" y="-328" font-family="Arial Italic" font-size="10.00" fill="#999999">string</text>
<text text-anchor="start" x="404" y="-315" font-family="Arial" font-size="10.00">matching_data </text>
<text text-anchor="start" x="471" y="-315" font-family="Arial Italic" font-size="10.00" fill="#999999">string</text>
<text text-anchor="start" x="404" y="-302" font-family="Arial" font-size="10.00">student_number </text>
<text text-anchor="start" x="477" y="-302" font-family="Arial Italic" font-size="10.00" fill="#999999">string</text>
<text text-anchor="start" x="404" y="-289" font-family="Arial" font-size="10.00">utorid </text>
<text text-anchor="start" x="432" y="-289" font-family="Arial Italic" font-size="10.00" fill="#999999">string ∗ U</text>
</g>
<!-- m_Exam&#45;&gt;m_Student -->
<g id="edge8" class="edge">
<title>m_Exam&#45;&gt;m_Student</title>
<path fill="none" stroke="black" d="M334.46,-216.21C353.04,-233.44 375.12,-253.9 395.91,-273.18"/>
<polygon fill="black" stroke="black" points="393.87,-275.58 402.61,-279.39 398.15,-270.96 393.87,-275.58"/>
</g>
<!-- m_ExamToken&#45;&gt;m_BookletMatch -->
<g id="edge7" class="edge">
<title>m_ExamToken&#45;&gt;m_BookletMatch</title>
<path fill="none" stroke="black" d="M721.12,-162C729.89,-162 738.9,-162 747.79,-162"/>
<polygon fill="black" stroke="black" points="748,-165.15 757,-162 748,-158.85 748,-165.15"/>
</g>
<!-- m_Room&#45;&gt;m_BookletMatch -->
<g id="edge6" class="edge">
<title>m_Room&#45;&gt;m_BookletMatch</title>
<path fill="none" stroke="black" d="M510.11,-190.18C520.28,-197.49 531.11,-205.44 541,-213 589.69,-250.23 589.72,-318.96 648,-300"/>
<path fill="none" stroke="black" d="M650,-300C689.42,-287.18 726.71,-261.31 756.88,-235.4"/>
<polygon fill="black" stroke="black" points="759.29,-237.48 763.99,-229.18 755.15,-232.73 759.29,-237.48"/>
</g>
<!-- m_Room&#45;&gt;m_ExamToken -->
<g id="edge2" class="edge">
<title>m_Room&#45;&gt;m_ExamToken</title>
<path fill="none" stroke="black" d="M541.12,-162C549.89,-162 558.9,-162 567.79,-162"/>
<polygon fill="black" stroke="black" points="568,-165.15 577,-162 568,-158.85 568,-165.15"/>
</g>
<!-- m_Student&#45;&gt;m_BookletMatch -->
<g id="edge3" class="edge">
<title>m_Student&#45;&gt;m_BookletMatch</title>
<path fill="none" stroke="black" d="M541.42,-327.13C574.27,-320.41 613.51,-311.22 648,-300"/>
</g>
<!-- m_User -->
<g id="node8" class="node">
<title>m_User</title>
<path fill="none" stroke="black" d="M30.5,-140.5C30.5,-140.5 150.5,-140.5 150.5,-140.5 156.5,-140.5 162.5,-146.5 162.5,-152.5 162.5,-152.5 162.5,-197.5 162.5,-197.5 162.5,-203.5 156.5,-209.5 150.5,-209.5 150.5,-209.5 30.5,-209.5 30.5,-209.5 24.5,-209.5 18.5,-203.5 18.5,-197.5 18.5,-197.5 18.5,-152.5 18.5,-152.5 18.5,-146.5 24.5,-140.5 30.5,-140.5"/>
<text text-anchor="start" x="76" y="-196.7" font-family="Arial Bold" font-size="11.00">User</text>
<polyline fill="none" stroke="black" points="18.5,-189.5 162.5,-189.5 "/>
<text text-anchor="start" x="25.5" y="-176" font-family="Arial" font-size="10.00">last_seen </text>
<text text-anchor="start" x="71.5" y="-176" font-family="Arial Italic" font-size="10.00" fill="#999999">datetime</text>
<text text-anchor="start" x="25.5" y="-163" font-family="Arial" font-size="10.00">name </text>
<text text-anchor="start" x="53.5" y="-163" font-family="Arial Italic" font-size="10.00" fill="#999999">string</text>
<text text-anchor="start" x="25.5" y="-150" font-family="Arial" font-size="10.00">utorid </text>
<text text-anchor="start" x="53.5" y="-150" font-family="Arial Italic" font-size="10.00" fill="#999999">string ∗ U</text>
</g>
<!-- m_User&#45;&gt;m_BookletMatch -->
<g id="edge5" class="edge">
<title>m_User&#45;&gt;m_BookletMatch</title>
<path fill="none" stroke="black" d="M120.51,-209.51C170.23,-265.67 277.97,-374.7 397,-416 457.46,-436.98 482.38,-441.68 541,-416 605.25,-387.86 581.38,-321.93 648,-300"/>
</g>
<!-- m_User&#45;&gt;m_Exam -->
<g id="edge9" class="edge">
<title>m_User&#45;&gt;m_Exam</title>
<path fill="none" stroke="black" d="M162.72,-175C177.27,-175 192.68,-175 207.53,-175"/>
<polygon fill="black" stroke="black" points="207.69,-178.15 216.69,-175 207.69,-171.85 207.69,-178.15"/>
</g>
<!-- m_User&#45;&gt;m_ExamToken -->
<g id="edge11" class="edge">
<title>m_User&#45;&gt;m_ExamToken</title>
<path fill="none" stroke="black" d="M470,-89C503.79,-91.55 538.76,-103.55 568.66,-117.1"/>
<polygon fill="black" stroke="black" points="567.47,-120.02 576.95,-120.96 570.12,-114.31 567.47,-120.02"/>
<path fill="none" stroke="black" d="M158.84,-140.5C177.29,-132.29 197.57,-124.36 217,-119 325.3,-89.11 355.97,-80.54 468,-89"/>
</g>
</g>
</svg>
